ModelForces
version=1
nRows=4
nColumns=158
inDegrees=no

This file contains the forces exerted on a model during a simulation.

A force is a generalized force, meaning that it can be either a force (N) or a torque (Nm).

Units are S.I. units (second, meters, Newtons, ...)
Angles are in degrees.

endheader
time	glut_med1_r	glut_med2_r	glut_med3_r	glut_min1_r	glut_min2_r	glut_min3_r	semimem_r	semiten_r	bifemlh_r	bifemsh_r	sar_r	add_long_r	add_brev_r	add_mag1_r	add_mag2_r	add_mag3_r	tfl_r	pect_r	grac_r	glut_max1_r	glut_max2_r	glut_max3_r	iliacus_r	psoas_r	quad_fem_r	gem_r	peri_r	rect_fem_r	vas_med_r	vas_int_r	vas_lat_r	med_gas_r	lat_gas_r	soleus_r	tib_post_r	flex_dig_r	flex_hal_r	tib_ant_r	per_brev_r	per_long_r	per_tert_r	ext_dig_r	ext_hal_r	glut_med1_l	glut_med2_l	glut_med3_l	glut_min1_l	glut_min2_l	glut_min3_l	semimem_l	semiten_l	bifemlh_l	bifemsh_l	sar_l	add_long_l	add_brev_l	add_mag1_l	add_mag2_l	add_mag3_l	tfl_l	pect_l	grac_l	glut_max1_l	glut_max2_l	glut_max3_l	iliacus_l	psoas_l	quad_fem_l	gem_l	peri_l	rect_fem_l	vas_med_l	vas_int_l	vas_lat_l	med_gas_l	lat_gas_l	soleus_l	tib_post_l	flex_dig_l	flex_hal_l	tib_ant_l	per_brev_l	per_long_l	per_tert_l	ext_dig_l	ext_hal_l	ercspn_r	ercspn_l	intobl_r	intobl_l	extobl_r	extobl_l	femur_lat_meniscii_r.femur_lat_r.force.X	femur_lat_meniscii_r.femur_lat_r.force.Y	femur_lat_meniscii_r.femur_lat_r.force.Z	femur_lat_meniscii_r.femur_lat_r.torque.X	femur_lat_meniscii_r.femur_lat_r.torque.Y	femur_lat_meniscii_r.femur_lat_r.torque.Z	femur_lat_meniscii_r.meniscus_lat_r.force.X	femur_lat_meniscii_r.meniscus_lat_r.force.Y	femur_lat_meniscii_r.meniscus_lat_r.force.Z	femur_lat_meniscii_r.meniscus_lat_r.torque.X	femur_lat_meniscii_r.meniscus_lat_r.torque.Y	femur_lat_meniscii_r.meniscus_lat_r.torque.Z	femur_med_meniscii_r.femur_med_r.force.X	femur_med_meniscii_r.femur_med_r.force.Y	femur_med_meniscii_r.femur_med_r.force.Z	femur_med_meniscii_r.femur_med_r.torque.X	femur_med_meniscii_r.femur_med_r.torque.Y	femur_med_meniscii_r.femur_med_r.torque.Z	femur_med_meniscii_r.meniscus_med_r.force.X	femur_med_meniscii_r.meniscus_med_r.force.Y	femur_med_meniscii_r.meniscus_med_r.force.Z	femur_med_meniscii_r.meniscus_med_r.torque.X	femur_med_meniscii_r.meniscus_med_r.torque.Y	femur_med_meniscii_r.meniscus_med_r.torque.Z	femur_med_tibia_r.tibia_upper_r.force.X	femur_med_tibia_r.tibia_upper_r.force.Y	femur_med_tibia_r.tibia_upper_r.force.Z	femur_med_tibia_r.tibia_upper_r.torque.X	femur_med_tibia_r.tibia_upper_r.torque.Y	femur_med_tibia_r.tibia_upper_r.torque.Z	femur_med_tibia_r.femur_med_r.force.X	femur_med_tibia_r.femur_med_r.force.Y	femur_med_tibia_r.femur_med_r.force.Z	femur_med_tibia_r.femur_med_r.torque.X	femur_med_tibia_r.femur_med_r.torque.Y	femur_med_tibia_r.femur_med_r.torque.Z	femur_lat_tibia_r.tibia_upper_r.force.X	femur_lat_tibia_r.tibia_upper_r.force.Y	femur_lat_tibia_r.tibia_upper_r.force.Z	femur_lat_tibia_r.tibia_upper_r.torque.X	femur_lat_tibia_r.tibia_upper_r.torque.Y	femur_lat_tibia_r.tibia_upper_r.torque.Z	femur_lat_tibia_r.femur_lat_r.force.X	femur_lat_tibia_r.femur_lat_r.force.Y	femur_lat_tibia_r.femur_lat_r.force.Z	femur_lat_tibia_r.femur_lat_r.torque.X	femur_lat_tibia_r.femur_lat_r.torque.Y	femur_lat_tibia_r.femur_lat_r.torque.Z	aACL_R	pACL_R	aPCL_R	pPCL_R	aMCL_R	mMCL_R	pMCL_R	aLCL_R	mLCL_R	pLCL_R	aPCL_L	pPCL_L	aMCL_L	aLCL_L	ground_prescribedForce_-60_fx	ground_prescribedForce_-60_fy	ground_prescribedForce_-60_fz
      0.00000000	     37.48087652	     28.28714471	     30.25598133	     13.28977762	     14.47626353	     15.91713841	      0.00000000	     17.31982518	     17.77056737	     27.39071691	      7.43317859	     27.93927808	     20.68957741	     14.51222487	     12.16230296	     19.66717628	     11.68146966	     11.16605282	      7.15555851	     18.12681708	     27.55933735	     20.56469162	     63.94906620	     55.74758807	     18.09791099	      9.16719286	     20.03897647	     81.97893068	     60.87777478	     64.20106683	     86.04477638	     20.93824588	     13.48467451	    152.72720615	     92.44658902	     14.93332009	     15.26895791	     41.82851940	     21.62523106	     46.40594865	      8.86060096	     25.04818486	      7.96045570	     37.48087652	     28.28714471	     30.25598133	     13.28977762	     14.47626353	     15.91713841	     42.06683902	     20.39635155	     37.67631238	     36.01822118	      7.59254209	     27.93927808	     20.68957741	     14.51222487	     12.16230296	     19.66717628	     12.58139899	     11.16605282	      7.78214370	     18.12681708	     27.55933735	     20.56469162	     63.94906620	     55.74758807	     18.09791099	      9.16719286	     20.03897647	     52.59637061	     32.48786114	     37.22481259	     39.87514307	     67.71424671	     31.64857027	    152.72720615	     92.44658902	     14.93332009	     15.26895791	     41.82851940	     21.62523106	     46.40594865	      8.86060096	     25.04818486	      7.96045570	    124.99446086	    124.99446086	     44.97041513	     44.97041513	     60.98287244	     60.98287244	    162.46361221	     43.40722376	     -8.81566816	      2.63829690	      3.97702238	     66.23659341	   -162.46361221	    -43.40722376	      8.81566816	      0.93966844	     -4.44889540	     -2.62184904	      0.00000000	      0.00000000	      0.00000000	      0.00000000	      0.00000000	      0.00000000	      0.00000000	      0.00000000	      0.00000000	      0.00000000	      0.00000000	      0.00000000	     -0.73969542	     -0.42053770	      0.26277472	     -0.01119919	      0.01473616	     -0.00807317	      0.73969542	      0.42053770	     -0.26277472	      0.11432201	     -0.01222651	      0.30237424	  -2479.69463307	  -1514.75188479	   -831.80897442	     61.85775612	    -88.35029893	    -23.47259158	   2479.69463307	   1514.75188479	    831.80897442	   -376.79428040	     60.92950460	   1012.25984225	      0.00000000	      0.00000000	    752.32128654	    483.28700956	      1.06917208	      0.25845319	      0.00000000	      0.00000000	      0.00000000	      0.00000000	      0.00000000	      0.00000000	      0.00000001	      0.00000000	     55.00000000	    -95.26270000	      0.00000000
      0.00069448	     37.47595326	     28.27892169	     30.24864776	     13.27974134	     14.47067155	     15.91494559	      0.00000000	     18.05388495	     18.35999844	     31.32527556	      8.38332719	     27.93261675	     20.66623115	     14.50805348	     12.15981120	     19.66513015	     12.06903062	     11.15975760	      7.78597513	     18.12243868	     27.55278676	     20.56058162	     63.93777910	     55.74110159	     18.09048986	      9.16618107	     20.03809108	     84.53841299	     66.11203153	     69.61977094	     91.95794266	     22.34177889	     14.25149366	    154.34621226	     92.61113709	     14.97569634	     15.32448351	     41.36652869	     21.67263748	     46.48458653	      8.73199204	     24.85326317	      7.88449920	     37.47595326	     28.27892169	     30.24864776	     13.27974134	     14.47067155	     15.91494559	     42.06464735	     20.39338269	     37.67386446	     36.00389925	      7.58570899	     27.93261675	     20.66623115	     14.50805348	     12.15981120	     19.66513015	     12.58088625	     11.15975760	      7.77821941	     18.12243868	     27.55278676	     20.56058162	     63.93777910	     55.74110159	     18.09048986	      9.16618107	     20.03809108	     52.59266210	     32.48245575	     37.21945540	     39.86969208	     67.71209128	     31.64754490	    152.72049992	     92.44489962	     14.93365994	     15.26918654	     41.82502649	     21.62397878	     46.40469873	      8.85927461	     25.04581080	      7.95950336	    124.90689908	    124.90689908	     44.96216411	     44.96216411	     60.97394736	     60.97394736	    103.61915512	    -31.30007729	   -101.83344667	     42.65295921	      1.42523325	     42.96946307	   -103.61915512	     31.30007729	    101.83344667	     -3.47129259	      0.27511545	     -3.62335158	      0.00000000	      0.00000000	      0.00000000	      0.00000000	      0.00000000	      0.00000000	      0.00000000	      0.00000000	      0.00000000	      0.00000000	      0.00000000	      0.00000000	      0.00000000	      0.00000000	      0.00000000	      0.00000000	      0.00000000	      0.00000000	      0.00000000	      0.00000000	      0.00000000	      0.00000000	      0.00000000	      0.00000000	  -1757.92035876	   -923.61600866	   -306.36144699	     32.02707811	    -53.87121927	    -21.25701246	   1757.92035876	    923.61600866	    306.36144699	   -146.49628360	     40.25432813	    719.14027265	      0.00000000	      0.00000000	    789.40019561	    561.53877585	     97.27739277	     93.04694526	      0.00000000	      0.00000000	      0.00000000	      0.00000000	      0.00000000	      0.00000000	      0.00000001	      0.00000000	     55.00000000	    -95.26270000	      0.00000000
      0.00156547	     37.45598650	     28.24630650	     30.21936279	     13.24247029	     14.44881333	     15.90605987	      0.00000000	     20.01293005	     19.96996897	     40.23317277	     10.18200366	     27.90600311	     20.58407932	     14.49150262	     12.14980972	     19.65680067	     12.96120321	     11.13573565	      9.27176270	     18.10495482	     27.52661453	     20.54407305	     63.89254095	     55.71475076	     18.06154675	      9.16207450	     20.03445646	     91.41391200	     81.15662801	     85.07215612	    108.99016971	     25.15817657	     15.84243004	    155.99570102	     93.05304712	     15.14739410	     15.50130422	     41.06202072	     21.51713785	     46.36579356	      8.53412144	     24.47293789	      7.75487112	     37.45598650	     28.24630650	     30.21936279	     13.24247029	     14.44881333	     15.90605987	     42.05566135	     20.38136497	     37.66384506	     35.94794332	      7.56085644	     27.90600311	     20.58407932	     14.49150262	     12.14980972	     19.65680067	     12.57878192	     11.13573565	      7.76311675	     18.10495482	     27.52661453	     20.54407305	     63.89254095	     55.71475076	     18.06154675	      9.16207450	     20.03445646	     52.57749400	     32.46064383	     37.19776978	     39.84760561	     67.70322793	     31.64332863	    152.69296893	     92.43794526	     14.93502706	     15.27009569	     41.81076576	     21.61884731	     46.39955480	      8.85391156	     25.03613714	      7.95563064	    124.57917502	    124.57917502	     44.92894121	     44.92894121	     60.93812488	     60.93812488	    111.29988314	    -47.92055306	   -124.58025409	     52.38544059	      1.33415395	     46.31934368	   -111.29988314	     47.92055306	    124.58025409	     -4.48266548	      0.77918416	     -4.33595732	      0.00000000	      0.00000000	      0.00000000	      0.00000000	      0.00000000	      0.00000000	      0.00000000	      0.00000000	      0.00000000	      0.00000000	      0.00000000	      0.00000000	      0.00000000	      0.00000000	      0.00000000	      0.00000000	      0.00000000	      0.00000000	      0.00000000	      0.00000000	      0.00000000	      0.00000000	      0.00000000	      0.00000000	   -991.54902295	   -457.42030084	    -98.38483712	     14.41036509	    -28.23324796	    -13.86544135	    991.54902295	    457.42030084	     98.38483712	    -50.44442227	     21.94310846	    406.27114961	      0.00000000	      0.00000000	    788.01599519	    534.51652564	     86.62778314	     79.73433164	      0.00000000	      0.00000000	      0.00000000	      0.00000000	      0.00000000	      0.00000000	      0.00000001	      0.00000000	     55.00000000	    -95.26270000	      0.00000000
      0.00243645	     37.42092313	     28.19055576	     30.16889479	     13.18344845	     14.41209351	     15.89047189	      0.00000000	     21.94558812	     21.60929594	     42.23919430	     10.41175451	     27.86011103	     20.46140836	     14.46319860	     12.13246601	     19.64210578	     13.57079516	     11.09649757	     10.05818640	     18.07482357	     27.48148031	     20.51542073	     63.81423038	     55.66838100	     18.01305353	      9.15485609	     20.02797763	     98.39407886	     96.16855243	    100.67290349	    128.10237732	     25.91642337	     16.38301361	    152.18661679	     93.34725456	     15.42394786	     15.72363859	     42.51888439	     20.90948274	     45.69010271	      8.64333074	     24.37247097	      7.75745092	     37.42092313	     28.19055576	     30.16889479	     13.18344845	     14.41209351	     15.89047189	     42.03966784	     20.36030994	     37.64604978	     35.85399347	      7.52239996	     27.86011103	     20.46140836	     14.46319860	     12.13246601	     19.64210578	     12.57503205	     11.09649757	      7.73820449	     18.07482357	     27.48148031	     20.51542073	     63.81423038	     55.66838100	     18.01305353	      9.15485609	     20.02797763	     52.55057872	     32.42257317	     37.15977435	     39.80886175	     67.68739527	     31.63579760	    152.64389103	     92.42550633	     14.93739660	     15.27164608	     41.78551654	     21.60972090	     46.39035718	      8.84452809	     25.01906244	      7.94881241	    124.05560583	    124.05560583	     44.87110947	     44.87110947	     60.87600418	     60.87600418	    156.03094984	    -49.06669687	   -134.46244509	     56.49589091	      2.27645776	     64.67423750	   -156.03094984	     49.06669687	    134.46244509	     -4.77328502	     -0.18257556	     -5.41912403	      0.00000000	      0.00000000	      0.00000000	      0.00000000	      0.00000000	      0.00000000	      0.00000000	      0.00000000	      0.00000000	      0.00000000	      0.00000000	      0.00000000	      0.00000000	      0.00000000	      0.00000000	      0.00000000	      0.00000000	      0.00000000	      0.00000000	      0.00000000	      0.00000000	      0.00000000	      0.00000000	      0.00000000	   -619.34636048	   -266.31668775	    -44.01450267	      8.06428878	    -17.22661342	     -9.17736394	    619.34636048	    266.31668775	     44.01450267	    -23.87566662	     13.54257414	    253.95669356	      0.00000000	      0.00000000	    755.01249933	    447.54371110	     18.92194470	     10.74286374	      0.00000000	      0.00000000	      0.00000000	      0.00000000	      0.00000000	      0.00000000	      0.00000001	      0.00000000	     55.00000000	    -95.26270000	      0.00000000
